<?xml version="1.0" encoding="UTF-8" standalone="no" ?>
<!DOCTYPE svg PUBLIC "-//W3C//DTD SVG 1.1//EN" "http://www.w3.org/Graphics/SVG/1.1/DTD/svg11.dtd">
<svg xmlns="http://www.w3.org/2000/svg" xmlns:xlink="http://www.w3.org/1999/xlink" version="1.1" width="500" height="500" viewBox="0 0 500 500" xml:space="preserve">
<desc>Created with Fabric.js 5.3.0</desc>
<defs>
</defs>
<g transform="matrix(4.5130135325 0 0 4.5130135325 254 250)" id="UUU3QPTPaAdGAnMX-4T4m"  >
<radialGradient id="SVGID_19" gradientUnits="userSpaceOnUse" gradientTransform="matrix(1 0 0 1 -31.60556 -31.60556)"  cx="18.439535661356004" cy="9.055239879621098" r="4.614726712410388" fx="18.439535661356004" fy="9.055239879621098">
<stop offset="0%" style="stop-color:#FFFFFF;stop-opacity: 1"/>
<stop offset="38.50516681639597%" style="stop-color:#7E7E7E;stop-opacity: 1"/>
<stop offset="100%" style="stop-color:#000000;stop-opacity: 1"/>
</radialGradient>
<path style="stroke: rgb(216,53,242); stroke-width: 0; stroke-dasharray: none; stroke-linecap: butt; stroke-dashoffset: 0; stroke-linejoin: miter; stroke-miterlimit: 4; fill: url(#SVGID_19); fill-rule: nonzero; opacity: 1;"  transform=" translate(0, 0)" d="M 0 -31.60556 C 17.44627 -31.60556 31.60556 -17.44627 31.60556 0 C 31.60556 17.44627 17.44627 31.60556 0 31.60556 C -17.44627 31.60556 -31.60556 17.44627 -31.60556 0 C -31.60556 -17.44627 -17.44627 -31.60556 0 -31.60556 z" stroke-linecap="round" />
</g>
<g transform="matrix(1 0 0 1 246 250)" id="6bvIcWdQaQ4pTmWm-JAP2"  >
<path style="stroke: rgb(0,0,0); stroke-width: 8; stroke-dasharray: none; stroke-linecap: butt; stroke-dashoffset: 0; stroke-linejoin: miter; stroke-miterlimit: 4; fill: rgb(255,255,255); fill-opacity: 0; fill-rule: nonzero; opacity: 1;"  transform=" translate(-0.000005, 0)" d="M -178.25537 0 L 178.25537999999997 0" stroke-linecap="round" />
</g>
<g transform="matrix(0.7547095802 -0.656059029 0.656059029 0.7547095802 254 250)" id="sKNyeig_KgPVc9Yd1gvwH"  >
<path style="stroke: rgb(0,0,0); stroke-width: 4; stroke-dasharray: none; stroke-linecap: butt; stroke-dashoffset: 0; stroke-linejoin: miter; stroke-miterlimit: 4; fill: rgb(255,255,255); fill-opacity: 0; fill-rule: nonzero; opacity: 1;"  transform=" translate(-0.000005, 0)" d="M -178.25537 0 L 178.25537999999997 0" stroke-linecap="round" />
</g>
<g transform="matrix(1 0 0 1 250 250)" id="_egWqMq3mE19LF5oH9yvG"  >
<path style="stroke: rgb(0,0,0); stroke-width: 8; stroke-dasharray: none; stroke-linecap: butt; stroke-dashoffset: 0; stroke-linejoin: miter; stroke-miterlimit: 4; fill: rgb(255,255,255); fill-opacity: 0; fill-rule: nonzero; opacity: 1;"  transform=" translate(0, 0)" d="M 0 -179.20354 L 0 179.20354" stroke-linecap="round" />
</g>
<g transform="matrix(0.7431448255 0.6691306064 -0.6691306064 0.7431448255 250.6321112516 250)" id="JAta2MLUHrxz_-K4Qo6Q2"  >
<path style="stroke: rgb(0,0,0); stroke-width: 4; stroke-dasharray: none; stroke-linecap: butt; stroke-dashoffset: 0; stroke-linejoin: miter; stroke-miterlimit: 4; fill: rgb(255,255,255); fill-opacity: 0; fill-rule: nonzero; opacity: 1;"  transform=" translate(-0.000005, 0)" d="M -178.25537 0 L 178.25537999999997 0" stroke-linecap="round" />
</g>
</svg>