<?xml version="1.0" encoding="UTF-8" standalone="no" ?>
<!DOCTYPE svg PUBLIC "-//W3C//DTD SVG 1.1//EN" "http://www.w3.org/Graphics/SVG/1.1/DTD/svg11.dtd">
<svg xmlns="http://www.w3.org/2000/svg" xmlns:xlink="http://www.w3.org/1999/xlink" version="1.1" width="500" height="500" viewBox="0 0 500 500" xml:space="preserve">
<desc>Created with Fabric.js 5.3.0</desc>
<defs>
</defs>
<g transform="matrix(4.5130135325 0 0 4.5130135325 254 250)" id="UUU3QPTPaAdGAnMX-4T4m"  >
<path style="stroke: rgb(0,0,0); stroke-width: 1; stroke-dasharray: none; stroke-linecap: butt; stroke-dashoffset: 0; stroke-linejoin: miter; stroke-miterlimit: 4; fill: rgb(255,209,0); fill-rule: nonzero; opacity: 1;"  transform=" translate(0, 0)" d="M 0 -31.60556 C 17.44627 -31.60556 31.60556 -17.44627 31.60556 0 C 31.60556 17.44627 17.44627 31.60556 0 31.60556 C -17.44627 31.60556 -31.60556 17.44627 -31.60556 0 C -31.60556 -17.44627 -17.44627 -31.60556 0 -31.60556 z" stroke-linecap="round" />
</g>
<g transform="matrix(0.4042451858 0 0 0.4042451858 197.6597643284 210.5499905954)" id="AZ31e7pTmtXf5ErM1idvx"  >
<path style="stroke: rgb(0,0,0); stroke-width: 0; stroke-dasharray: none; stroke-linecap: butt; stroke-dashoffset: 0; stroke-linejoin: miter; stroke-miterlimit: 4; fill: rgb(0,0,0); fill-rule: nonzero; opacity: 1;"  transform=" translate(0, 0)" d="M 0 -31.60556 C 17.44627 -31.60556 31.60556 -17.44627 31.60556 0 C 31.60556 17.44627 17.44627 31.60556 0 31.60556 C -17.44627 31.60556 -31.60556 17.44627 -31.60556 0 C -31.60556 -17.44627 -17.44627 -31.60556 0 -31.60556 z" stroke-linecap="round" />
</g>
<g transform="matrix(0.4042451858 0 0 0.4042451858 307.5211624347 210.5499895531)" id="ghtuXfuJ30bqIm24EZ5Ef"  >
<path style="stroke: rgb(0,0,0); stroke-width: 0; stroke-dasharray: none; stroke-linecap: butt; stroke-dashoffset: 0; stroke-linejoin: miter; stroke-miterlimit: 4; fill: rgb(0,0,0); fill-rule: nonzero; opacity: 1;"  transform=" translate(0, 0)" d="M 0 -31.60556 C 17.44627 -31.60556 31.60556 -17.44627 31.60556 0 C 31.60556 17.44627 17.44627 31.60556 0 31.60556 C -17.44627 31.60556 -31.60556 17.44627 -31.60556 0 C -31.60556 -17.44627 -17.44627 -31.60556 0 -31.60556 z" stroke-linecap="round" />
</g>
<g transform="matrix(1 0 0 1.504243507 253.5904628604 306.8546202211)" id="LJ1be64RO4xY7aRWD6tK4"  >
<path style="stroke: rgb(0,0,0); stroke-width: 3; stroke-dasharray: none; stroke-linecap: butt; stroke-dashoffset: 0; stroke-linejoin: miter; stroke-miterlimit: 4; fill: rgb(255,255,255); fill-opacity: 0; fill-rule: nonzero; opacity: 1;"  transform=" translate(0, 0)" d="M -67.7071 -10.1522 L -66.42918 -9.22891 C -49.11215 3.2826499999999985 -24.625820000000004 10.324989999999998 0.9479599999999948 10.14896 C 26.521739999999994 9.97293 50.783469999999994 2.595040000000001 67.7071 -10.152209999999998 L 67.7071 -10.152209999999998" stroke-linecap="round" />
</g>
<g transform="matrix(1 0 0 1 124.2098609355 190.8975979772)" id="PYooklM8xuEEgE3qmiCFe"  >
<path style="stroke: rgb(0,0,0); stroke-width: 1; stroke-dasharray: none; stroke-linecap: butt; stroke-dashoffset: 0; stroke-linejoin: miter; stroke-miterlimit: 4; fill: rgb(255,255,255); fill-opacity: 0; fill-rule: nonzero; opacity: 1;"  transform=" translate(0, 0)" d="M 0 0" stroke-linecap="round" />
</g>
<g transform="matrix(1 0 0 1 253.3452886501 204.4089569579)" id="JqQCoi7zDwYx4NrS-ELs3"  >
<path style="stroke: rgb(0,0,0); stroke-width: 3; stroke-dasharray: none; stroke-linecap: butt; stroke-dashoffset: 0; stroke-linejoin: miter; stroke-miterlimit: 4; fill: rgb(255,255,255); fill-opacity: 0; fill-rule: nonzero; opacity: 1;"  transform=" translate(0, 0)" d="M -138.00729 18.91743 L -42.58433000000001 -12.099070000000001 C -14.488510000000009 -21.2314 15.784089999999992 -21.18902 43.85422999999999 -11.978050000000001 L 138.00728999999998 18.917429999999996" stroke-linecap="round" />
</g>
<g transform="matrix(1.1339440148 0 0 1.1859206943 208.3197713421 211.4652583689)" id="h_BG0EcpjfVjjEICYDEAH"  >
<path style="stroke: rgb(0,0,0); stroke-width: 1; stroke-dasharray: none; stroke-linecap: butt; stroke-dashoffset: 0; stroke-linejoin: miter; stroke-miterlimit: 4; fill: rgb(0,0,0); fill-rule: nonzero; opacity: 1;"  transform=" translate(0, 0)" d="M -23.38812 -6.7144 L -23.38812 14.521059999999999 L -23.38812 14.521059999999999 C -23.38812 19.24365 -19.38422 23.07206 -14.445170000000001 23.07206 L 6.430799999999998 23.07206 L 6.430799999999998 23.07206 C 10.774149999999999 23.07206 14.510309999999999 20.13324 15.347659999999998 16.05815 L 23.388109999999998 -23.072059999999997 z" stroke-linecap="round" />
</g>
<g transform="matrix(-1.1339440148 0 0 1.1859206943 302.5542709459 210.5499895531)" id="4DEirL-UoIMBDPg5kxjET"  >
<path style="stroke: rgb(0,0,0); stroke-width: 1; stroke-dasharray: none; stroke-linecap: butt; stroke-dashoffset: 0; stroke-linejoin: miter; stroke-miterlimit: 4; fill: rgb(0,0,0); fill-rule: nonzero; opacity: 1;"  transform=" translate(0, 0)" d="M -23.38812 -6.7144 L -23.38812 14.521059999999999 L -23.38812 14.521059999999999 C -23.38812 19.24365 -19.38422 23.07206 -14.445170000000001 23.07206 L 6.430799999999998 23.07206 L 6.430799999999998 23.07206 C 10.774149999999999 23.07206 14.510309999999999 20.13324 15.347659999999998 16.05815 L 23.388109999999998 -23.072059999999997 z" stroke-linecap="round" />
</g>
</svg>